<svg xmlns="http://www.w3.org/2000/svg"  viewBox="0 0 48 48" width="100px" height="100px"><path d="M 13.5 3 C 10.480226 3 8 5.4802259 8 8.5 L 8 13 L 5.5 13 C 3.5850452 13 2 14.585045 2 16.5 L 2 21.5 C 2 23.414955 3.5850452 25 5.5 25 L 8 25 L 8 29.5 C 8 32.519774 10.480226 35 13.5 35 L 34.5 35 C 37.519774 35 40 32.519774 40 29.5 L 40 25 L 43 25 L 43 35.5 C 43 38.003499 41.003499 40 38.5 40 L 29.660156 40 A 3.5 3.5 0 0 0 26.5 38 A 3.5 3.5 0 1 0 26.5 45 A 3.5 3.5 0 0 0 29.658203 43 L 38.5 43 C 42.624501 43 46 39.624501 46 35.5 L 46 23.5 L 46 21.75 L 46 16.5 C 46 14.585045 44.414955 13 42.5 13 L 40 13 L 40 8.5 C 40 5.4802259 37.519774 3 34.5 3 L 13.5 3 z M 13.5 6 L 34.5 6 C 35.898226 6 37 7.1017741 37 8.5 L 37 14.5 L 37 23.5 L 37 29.5 C 37 30.898226 35.898226 32 34.5 32 L 13.5 32 C 12.101774 32 11 30.898226 11 29.5 L 11 23.5 L 11 14.5 L 11 8.5 C 11 7.1017741 12.101774 6 13.5 6 z M 17 14 A 2 2 0 0 0 17 18 A 2 2 0 0 0 17 14 z M 31 14 A 2 2 0 0 0 31 18 A 2 2 0 0 0 31 14 z M 5.5 16 L 8 16 L 8 22 L 5.5 22 C 5.2049548 22 5 21.795045 5 21.5 L 5 16.5 C 5 16.204955 5.2049548 16 5.5 16 z M 40 16 L 42.5 16 C 42.795045 16 43 16.204955 43 16.5 L 43 21.75 L 43 22 L 40 22 L 40 16 z M 30.486328 22.978516 A 1.50015 1.50015 0 0 0 29.439453 23.439453 C 29.439453 23.439453 29.176776 23.729426 28.298828 24.142578 C 27.42088 24.55573 26.027778 25 24 25 C 21.972222 25 20.57912 24.55573 19.701172 24.142578 C 18.823224 23.729426 18.560547 23.439453 18.560547 23.439453 A 1.50015 1.50015 0 0 0 17.484375 22.984375 A 1.50015 1.50015 0 0 0 16.439453 25.560547 C 16.439453 25.560547 17.176776 26.270574 18.423828 26.857422 C 19.67088 27.44427 21.527778 28 24 28 C 26.472222 28 28.32912 27.44427 29.576172 26.857422 C 30.823224 26.270574 31.560547 25.560547 31.560547 25.560547 A 1.50015 1.50015 0 0 0 30.486328 22.978516 z"/></svg>